Coordinates
version=1
nRows=8
nColumns=63
inDegrees=yes

Units are S.I. units (second, meters, Newtons, ...)
If the header above contains a line with 'inDegrees', this indicates whether rotational values are in degrees (yes) or radians (no).

endheader
time	pelvis_tilt	pelvis_list	pelvis_rotation	pelvis_tx	pelvis_ty	pelvis_tz	hip_flexion_r	hip_adduction_r	hip_rotation_r	knee_angle_r	knee_angle_r_beta	ankle_angle_r	subtalar_angle_r	mtp_angle_r	hip_flexion_l	hip_adduction_l	hip_rotation_l	knee_angle_l	knee_angle_l_beta	ankle_angle_l	subtalar_angle_l	mtp_angle_l	L5_S1_Flex_Ext	L5_S1_Lat_Bending	L5_S1_axial_rotation	L4_L5_Flex_Ext	L4_L5_Lat_Bending	L4_L5_axial_rotation	L3_L4_Flex_Ext	L3_L4_Lat_Bending	L3_L4_axial_rotation	L2_L3_Flex_Ext	L2_L3_Lat_Bending	L2_L3_axial_rotation	L1_L2_Flex_Ext	L1_L2_Lat_Bending	L1_L2_axial_rotation	L1_T12_Flex_Ext	L1_T12_Lat_Bending	L1_T12_axial_rotation	Abs_r3	Abs_r2	Abs_r1	Abs_t1	Abs_t2	neck_flexion	neck_bending	neck_rotation	arm_flex_r	arm_add_r	arm_rot_r	elbow_flex_r	pro_sup_r	wrist_flex_r	wrist_dev_r	arm_flex_l	arm_add_l	arm_rot_l	elbow_flex_l	pro_sup_l	wrist_flex_l	wrist_dev_l
0.000000	3.185118	-5.468977	90.509649	0.101045	0.673466	0.825631	-0.014415	4.032788	4.080202	5.216733	0.091049	12.798436	-8.112414	0.000000	1.077273	-2.200059	-9.566837	7.126263	0.124377	21.687500	7.084736	0.000000	0.209493	0.101256	0.960522	0.389049	0.134671	1.020555	0.344176	0.246194	1.020555	0.239429	0.246194	0.840457	0.194535	0.206482	0.780424	0.119704	0.156846	0.720392	1.496386	1.145430	5.342138	0.000000	0.000000	28.216011	-0.745160	-5.010345	0.847449	-17.802794	36.808149	78.643471	67.899873	17.715691	31.183216	13.877937	-17.447410	50.696163	78.533824	84.291469	21.273836	28.215009
0.016949	3.254268	-5.489833	90.537645	0.100872	0.673322	0.825400	0.000777	4.063636	3.588610	5.153931	0.089953	13.367497	-7.034152	0.000000	1.085093	-2.224370	-9.217759	7.143275	0.124674	21.650566	6.470229	0.000000	0.197814	0.110182	0.952996	0.367360	0.146542	1.012558	0.324988	0.267896	1.012558	0.226081	0.267896	0.833872	0.183690	0.224682	0.774309	0.113031	0.170671	0.714747	1.412964	1.246397	5.300279	0.000000	0.000000	27.839582	-0.561709	-4.971884	0.180980	-18.326618	37.196480	79.823149	63.615257	12.325714	30.506947	13.087983	-17.183246	49.494619	78.952818	83.171426	19.544860	28.524606
0.033898	3.306405	-5.506422	90.559222	0.100736	0.673218	0.825218	0.015242	4.083046	3.168146	5.102938	0.089063	13.853428	-6.119067	0.000000	1.097330	-2.241751	-8.916688	7.171969	0.125174	21.618998	5.957174	0.000000	0.187669	0.117128	0.949175	0.348520	0.155780	1.008498	0.308321	0.284785	1.008498	0.214487	0.284785	0.830528	0.174269	0.238847	0.771204	0.107234	0.181431	0.711881	1.340499	1.324974	5.279024	0.000000	0.000000	27.505654	-0.435103	-4.947057	-0.344482	-18.725880	37.560451	80.758471	59.725461	7.462092	29.828483	12.469071	-16.954765	48.566759	79.224282	82.022902	18.016054	28.744976
0.050847	3.342783	-5.519139	90.575413	0.100634	0.673149	0.825083	0.028861	4.091939	2.815523	5.062726	0.088361	14.261930	-5.356915	0.000000	1.113060	-2.252522	-8.659761	7.210214	0.125842	21.591264	5.538220	0.000000	0.178981	0.122230	0.948529	0.332385	0.162565	1.007812	0.294048	0.297189	1.007812	0.204557	0.297189	0.829963	0.166202	0.249251	0.770680	0.102270	0.189334	0.711397	1.278442	1.382687	5.275433	0.000000	0.000000	27.213217	-0.358050	-4.933944	-0.740080	-19.013135	37.903864	81.471859	56.204867	3.094731	29.148001	12.004406	-16.760297	47.885816	79.364805	80.866818	16.679340	28.883729
0.067797	3.364655	-5.528376	90.587253	0.100562	0.673110	0.824990	0.041514	4.091235	2.527454	5.032266	0.087830	14.598703	-4.737448	0.000000	1.131358	-2.257001	-8.443118	7.255881	0.126639	21.565830	5.206013	0.000000	0.171673	0.125622	0.950530	0.318814	0.167077	1.009938	0.282042	0.305437	1.009938	0.196205	0.305437	0.831714	0.159416	0.256168	0.772306	0.098094	0.194588	0.712898	1.226245	1.421059	5.286565	0.000000	0.000000	26.961260	-0.323256	-4.930622	-1.016956	-19.200939	38.230516	81.985739	53.027857	-0.806466	28.465679	11.677190	-16.598173	47.425026	79.390977	79.724097	15.526637	28.948473
0.084746	3.373274	-5.534527	90.595776	0.100516	0.673095	0.824934	0.053084	4.081855	2.300652	5.010533	0.087450	14.869447	-4.250421	0.000000	1.151300	-2.255509	-8.262896	7.306839	0.127528	21.541165	4.953202	0.000000	0.165669	0.127439	0.954650	0.307664	0.169494	1.014316	0.272178	0.309855	1.014316	0.189343	0.309855	0.835319	0.153841	0.259873	0.775653	0.094663	0.197403	0.715988	1.183359	1.441615	5.309478	0.000000	0.000000	26.748770	-0.323430	-4.935166	-1.186251	-19.301847	38.544209	82.322535	50.168813	-4.271594	27.781693	11.470628	-16.466725	47.157623	79.319386	78.615660	14.549867	28.946816
0.101695	3.369893	-5.537986	90.602016	0.100493	0.673098	0.824912	0.063451	4.064719	2.131831	4.996497	0.087205	15.079863	-3.885588	0.000000	1.171962	-2.248364	-8.115233	7.360960	0.128473	21.515735	4.772435	0.000000	0.160892	0.127816	0.960360	0.298793	0.169995	1.020382	0.264330	0.310772	1.020382	0.183884	0.310772	0.840315	0.149404	0.260642	0.780292	0.091934	0.197987	0.720270	1.149237	1.445879	5.341232	0.000000	0.000000	26.574737	-0.351278	-4.945656	-1.259109	-19.328416	38.848740	82.504671	47.602118	-7.330747	27.096222	11.367921	-16.364282	47.056842	79.166624	77.562430	13.740951	28.886367
0.118644	3.355764	-5.539144	90.607006	0.100487	0.673114	0.824920	0.072496	4.040750	2.017704	4.989133	0.087077	15.235650	-3.632702	0.000000	1.192419	-2.235887	-7.996269	7.416112	0.129436	21.488007	4.656359	0.000000	0.157265	0.126887	0.967130	0.292057	0.168760	1.027576	0.258371	0.308514	1.027576	0.179738	0.308514	0.846239	0.146036	0.258749	0.785793	0.089861	0.196549	0.725347	1.123328	1.435376	5.378887	0.000000	0.000000	26.438149	-0.399509	-4.960167	-1.246670	-19.293199	39.147911	82.554571	45.302155	-10.014023	26.409441	11.352275	-16.289177	47.095917	78.949279	76.585327	13.091809	28.774736
